<svg width="20" height="20" viewBox="0 0 20 20" fill="none" xmlns="http://www.w3.org/2000/svg">
<path d="M10.0001 2C9.20441 2 8.44135 2.31607 7.87874 2.87868C7.31613 3.44129 7.00006 4.20435 7.00006 5C7.00006 5.79565 7.31613 6.55871 7.87874 7.12132C8.44135 7.68393 9.20441 8 10.0001 8C10.7957 8 11.5588 7.68393 12.1214 7.12132C12.684 6.55871 13.0001 5.79565 13.0001 5C13.0001 4.20435 12.684 3.44129 12.1214 2.87868C11.5588 2.31607 10.7957 2 10.0001 2ZM5.05306 9.996C5.01906 10.1587 5.00206 10.3267 5.00206 10.5V14C5.00141 14.726 5.15918 15.4434 5.46437 16.1021C5.76956 16.7609 6.21481 17.3451 6.76906 17.814L6.59806 17.864C6.09063 18.0001 5.56136 18.0349 5.04047 17.9665C4.51958 17.898 4.01729 17.7276 3.56226 17.465C3.10724 17.2024 2.70841 16.8527 2.38855 16.4359C2.06868 16.0192 1.83405 15.5435 1.69806 15.036L1.05106 12.621C1.0001 12.4307 0.98712 12.2323 1.01286 12.037C1.0386 11.8417 1.10256 11.6533 1.20109 11.4827C1.29961 11.3122 1.43077 11.1627 1.58708 11.0428C1.74338 10.9229 1.92177 10.8349 2.11206 10.784L5.05306 9.996ZM13.2351 17.814C13.7893 17.3451 14.2346 16.7609 14.5398 16.1021C14.8449 15.4434 15.0027 14.726 15.0021 14V10.5C15.0014 10.3267 14.9847 10.1587 14.9521 9.996L17.8921 10.784C18.2762 10.8871 18.6036 11.1385 18.8024 11.483C19.0012 11.8275 19.055 12.2368 18.9521 12.621L18.3051 15.036C18.1652 15.5578 17.921 16.0459 17.5873 16.4708C17.2537 16.8957 16.8374 17.2486 16.3636 17.5082C15.8898 17.7678 15.3683 17.9287 14.8306 17.9813C14.2929 18.0339 13.7502 17.9769 13.2351 17.814ZM16.5001 4C15.837 4 15.2011 4.26339 14.7323 4.73223C14.2635 5.20107 14.0001 5.83696 14.0001 6.5C14.0001 7.16304 14.2635 7.79893 14.7323 8.26777C15.2011 8.73661 15.837 9 16.5001 9C17.1631 9 17.799 8.73661 18.2678 8.26777C18.7367 7.79893 19.0001 7.16304 19.0001 6.5C19.0001 5.83696 18.7367 5.20107 18.2678 4.73223C17.799 4.26339 17.1631 4 16.5001 4ZM3.50006 4C2.83702 4 2.20113 4.26339 1.73229 4.73223C1.26345 5.20107 1.00006 5.83696 1.00006 6.5C1.00006 7.16304 1.26345 7.79893 1.73229 8.26777C2.20113 8.73661 2.83702 9 3.50006 9C4.1631 9 4.79899 8.73661 5.26783 8.26777C5.73667 7.79893 6.00006 7.16304 6.00006 6.5C6.00006 5.83696 5.73667 5.20107 5.26783 4.73223C4.79899 4.26339 4.1631 4 3.50006 4ZM7.50006 9C7.10223 9 6.7207 9.15804 6.4394 9.43934C6.15809 9.72064 6.00006 10.1022 6.00006 10.5V14C6.00006 15.0609 6.42149 16.0783 7.17163 16.8284C7.92178 17.5786 8.93919 18 10.0001 18C11.0609 18 12.0783 17.5786 12.8285 16.8284C13.5786 16.0783 14.0001 15.0609 14.0001 14V10.5C14.0001 10.1022 13.842 9.72064 13.5607 9.43934C13.2794 9.15804 12.8979 9 12.5001 9H7.50006Z" fill="white"/>
</svg>
