<svg xmlns:xlink="http://www.w3.org/1999/xlink" xmlns="http://www.w3.org/2000/svg" width="33" height="30" viewBox="0 0 33 30" fill="none">
<path id="Logo" d="M33 12.7886L25.698 0H11.0907L14.5539 6.05914L15.6111 7.91143L14.3471 10.122H11.8224L10.7669 8.26971L7.30451 2.20886L0 15L7.30197 27.7886L10.7669 21.726L11.824 19.8737H14.3487L15.6128 22.0877L14.5531 23.94L11.0907 30H25.698L33 17.2114H23.9652L22.702 15L23.9652 12.7894L33 12.7886ZM7.2706 5.72486L8.62197 8.09057L6.54913 11.7197H15.2601L19.6169 4.09114H15.4712L14.1207 1.72543H23.8075L16.6802 14.208H2.42551L7.2706 5.72486ZM14.119 28.2677L15.4695 25.902H19.6152L15.2584 18.2734H6.54913L8.62197 21.9026L7.2706 24.2683L2.42551 15.7826H16.6802L18.5563 19.068L23.8075 28.266L14.119 28.2677ZM25.2335 22.6286L27.3046 18.9994H30.0065L25.1631 27.4851L20.8886 20.004L18.0332 15L21.4142 9.08143L25.1631 2.51914L30.0065 11.0049H27.3046L25.2335 7.37143L20.8767 15L25.2335 22.6286Z" fill="white"/>
</svg>