<svg width="20" height="20" viewBox="0 0 20 20" fill="none" xmlns="http://www.w3.org/2000/svg">
<path d="M11.7383 16.2129C11.7383 16.7433 11.5276 17.252 11.1525 17.6271C10.7774 18.0022 10.2687 18.2129 9.73828 18.2129C9.20785 18.2129 8.69914 18.0022 8.32407 17.6271C7.94899 17.252 7.73828 16.7433 7.73828 16.2129C7.73828 15.6825 7.94899 15.1737 8.32407 14.7987C8.69914 14.4236 9.20785 14.2129 9.73828 14.2129C10.2687 14.2129 10.7774 14.4236 11.1525 14.7987C11.5276 15.1737 11.7383 15.6825 11.7383 16.2129Z" fill="white"/>
<path fill-rule="evenodd" clip-rule="evenodd" d="M9.70976 4.76523C9.03976 4.76523 8.46476 4.96523 8.05976 5.25123C7.66976 5.52723 7.47676 5.84823 7.42076 6.12523C7.33802 6.4955 7.11345 6.81858 6.79523 7.02517C6.47701 7.23176 6.0905 7.3054 5.71861 7.23029C5.34672 7.15518 5.01908 6.93731 4.80599 6.62341C4.5929 6.30951 4.51132 5.92459 4.57876 5.55123C4.80576 4.42523 5.50376 3.50623 6.38776 2.88123C7.30776 2.23123 8.47376 1.86523 9.70976 1.86523C12.2668 1.86523 14.9178 3.57523 14.9178 6.32123C14.9178 7.91123 13.9728 9.19723 12.7488 9.94723C12.4207 10.148 12.0263 10.2102 11.6524 10.1202C11.2784 10.0302 10.9555 9.79531 10.7548 9.46723C10.554 9.13916 10.4918 8.74477 10.5818 8.37082C10.6718 7.99688 10.9067 7.674 11.2348 7.47323C11.8048 7.12423 12.0178 6.67923 12.0178 6.32123C12.0178 5.74723 11.3028 4.76523 9.70976 4.76523Z" fill="white"/>
<path fill-rule="evenodd" clip-rule="evenodd" d="M9.70977 8.62988C10.5098 8.62988 11.1598 9.27788 11.1598 10.0799V11.5819C11.1598 11.9664 11.007 12.3353 10.7351 12.6072C10.4631 12.8791 10.0943 13.0319 9.70977 13.0319C9.3252 13.0319 8.95639 12.8791 8.68446 12.6072C8.41253 12.3353 8.25977 11.9664 8.25977 11.5819V10.0799C8.25977 9.27988 8.90877 8.62988 9.70977 8.62988Z" fill="white"/>
<path fill-rule="evenodd" clip-rule="evenodd" d="M13.2388 7.96648C13.3367 8.12995 13.4015 8.31112 13.4294 8.49963C13.4573 8.68815 13.4477 8.88031 13.4013 9.06513C13.3548 9.24995 13.2724 9.4238 13.1588 9.57675C13.0451 9.72969 12.9024 9.85873 12.7388 9.95648L10.4548 11.3235C10.1249 11.5211 9.72995 11.5795 9.35694 11.4859C8.98393 11.3923 8.66338 11.1544 8.46579 10.8245C8.2682 10.4946 8.20978 10.0996 8.30336 9.72664C8.39694 9.35363 8.63486 9.03307 8.96479 8.83548L11.2498 7.46748C11.4132 7.36969 11.5943 7.30505 11.7827 7.27725C11.9711 7.24945 12.1632 7.25904 12.3479 7.30547C12.5326 7.3519 12.7063 7.43426 12.8592 7.54785C13.012 7.66144 13.141 7.80303 13.2388 7.96648Z" fill="white"/>
</svg>
