<svg width="24" height="24" viewBox="0 0 24 24" fill="none" xmlns="http://www.w3.org/2000/svg">
<path d="M13.208 8.468H14.997C15.2451 8.46818 15.4892 8.52987 15.7075 8.64755C15.9259 8.76524 16.1117 8.93523 16.2482 9.14232C16.3847 9.34941 16.4678 9.58713 16.4899 9.83419C16.5121 10.0813 16.4726 10.3299 16.375 10.558L12.415 19.801C12.3194 20.0223 12.1505 20.204 11.9367 20.3153C11.7229 20.4267 11.4772 20.4611 11.2411 20.4126C11.0049 20.3641 10.7927 20.2358 10.64 20.0492C10.4874 19.8626 10.4037 19.6291 10.403 19.388V12.468L8.95 12.423C8.56091 12.41 8.1921 12.2463 7.92152 11.9664C7.65094 11.6865 7.49978 11.3123 7.5 10.923V5C7.5 4.60218 7.65804 4.22064 7.93934 3.93934C8.22064 3.65804 8.60218 3.5 9 3.5H11.708C12.1058 3.5 12.4874 3.65804 12.7687 3.93934C13.05 4.22064 13.208 4.60218 13.208 5V8.468Z" fill="white"/>
</svg>
